PathFileType	4	(X/Y/Z)	 s09c0203.trc
DataRate	CameraRate	NumFrames	NumMarkers	Units	OrigDataRate	OrigDataStartFrame	OrigNumFrames
200	200	4	50	mm	200	751	2000
Frame#	Time	racr			lacr			c7			jug			rlel			rdr			llel			ldr			s2			lic			ric			lasi			rasi			rpsi			lpsi			rgt			lgt			rth1			rth2			rth3			rth4			rlfc			rmfc			rsh1			rsh2			rsh3			rsh4			rlmal			rmmal			rcal			rtoe			rmt5			lth1			lth2			lth4			lth3			llfc			lmfc			llmal			lmmal			lcal			lmt5			lsh1			lsh2			lsh3			lsh4			ltoe			SBIKE			LBIKE			RBIKE			
		X1	Y1	Z1	X2	Y2	Z2	X3	Y3	Z3	X4	Y4	Z4	X5	Y5	Z5	X6	Y6	Z6	X7	Y7	Z7	X8	Y8	Z8	X9	Y9	Z9	X10	Y10	Z10	X11	Y11	Z11	X12	Y12	Z12	X13	Y13	Z13	X14	Y14	Z14	X15	Y15	Z15	X16	Y16	Z16	X17	Y17	Z17	X18	Y18	Z18	X19	Y19	Z19	X20	Y20	Z20	X21	Y21	Z21	X22	Y22	Z22	X23	Y23	Z23	X24	Y24	Z24	X25	Y25	Z25	X26	Y26	Z26	X27	Y27	Z27	X28	Y28	Z28	X29	Y29	Z29	X30	Y30	Z30	X31	Y31	Z31	X32	Y32	Z32	X33	Y33	Z33	X34	Y34	Z34	X35	Y35	Z35	X36	Y36	Z36	X37	Y37	Z37	X38	Y38	Z38	X39	Y39	Z39	X40	Y40	Z40	X41	Y41	Z41	X42	Y42	Z42	X43	Y43	Z43	X44	Y44	Z44	X45	Y45	Z45	X46	Y46	Z46	X47	Y47	Z47	X48	Y48	Z48	X49	Y49	Z49	X50	Y50	Z50	
751	3.7550	479.527390	1236.210392	-39.425450	564.571675	1192.234079	-362.922037	491.282872	1291.017584	-201.776424	467.257152	1156.671533	-206.795559	468.826807	999.438944	58.715261	670.087324	907.280675	-52.899269	445.454643	991.310284	-532.537258	660.552454	907.539962	-450.882691	13.482123	1122.479010	-287.425458	157.004111	1101.820987	-422.591199	138.715156	1147.973119	-129.850343	194.134912	1049.027255	-391.401501	187.236629	1098.437878	-141.728805	33.036786	1161.056340	-230.944616	46.414682	1153.669902	-339.292907	137.619449	1041.941351	-76.447364	112.797861	960.994988	-443.969432	264.377003	986.524593	-90.438862	349.943965	976.295648	-104.000027	419.311055	920.815278	-105.092878	359.573044	998.519110	-132.554937	497.442880	842.293265	-134.036883	476.438162	814.736136	-230.730934	433.330741	764.992253	-96.393072	404.520352	680.025070	-101.285555	338.193615	622.725054	-91.529826	423.902594	666.678255	-133.502116	285.271923	535.138278	-83.088909	279.056437	543.079676	-161.307355	200.512134	497.872290	-110.309468	463.855981	498.127321	-131.229531	386.416917	478.629563	-59.389069	198.965629	848.482717	-432.438096	263.606485	795.364744	-418.551181	293.737051	815.944501	-409.606614	294.304888	711.112201	-404.236306	330.115946	616.620309	-382.806502	335.156086	604.802775	-287.605447	146.255868	297.735216	-406.392170	166.287651	293.989475	-333.361519	72.552308	286.863836	-365.185982	205.749654	172.924235	-428.889073	280.193099	529.595593	-409.339489	257.346539	446.334874	-401.131733	195.456897	382.830172	-407.108288	276.797380	437.100548	-368.502288	294.044926	150.626854	-363.441643	-65.238126	851.228199	-239.877782	21.015451	84.702687	-442.152857	21.139416	84.188295	-43.790418	
752	3.7600	478.866790	1235.404130	-38.555925	564.402915	1190.317213	-361.939852	490.573697	1290.222473	-201.344385	466.564989	1155.681069	-205.837580	468.016039	998.844937	59.936379	668.982681	907.324665	-52.198907	444.560267	990.058812	-531.673964	660.335976	907.475940	-450.846759	13.173163	1121.168274	-287.365308	156.728687	1100.939939	-421.988886	138.296728	1147.060309	-128.943831	194.107912	1048.477309	-390.685945	187.143329	1098.006883	-140.894105	32.617277	1159.843552	-230.672422	45.954718	1152.460331	-338.979954	137.177969	1039.868963	-75.532073	114.153607	960.220662	-443.336124	264.232715	982.965296	-88.784149	349.865796	971.799015	-101.770378	418.616610	915.547423	-103.474775	359.881920	994.353373	-129.934989	496.489898	836.899764	-132.349578	475.998810	809.618946	-228.652992	433.860176	758.254703	-94.524976	406.368045	672.943776	-100.217720	341.004082	614.488765	-90.791127	425.935410	659.794279	-132.328868	289.835775	526.364027	-82.891351	283.554953	534.675997	-161.173985	206.136680	486.743132	-110.347934	469.353853	495.649158	-130.860006	392.769374	473.295970	-59.269189	202.422994	849.516906	-431.288157	267.650363	797.381565	-416.633205	297.344544	818.519002	-407.192873	299.473179	713.569089	-402.274461	334.602277	618.703041	-381.605877	337.860142	607.219961	-286.148348	142.542668	303.851760	-406.012619	162.555448	299.554342	-332.863627	68.717131	294.774706	-364.559649	198.882081	177.629674	-428.498858	282.351964	532.303610	-408.385958	257.294174	449.565926	-400.383062	193.839231	387.741668	-406.523767	276.519750	439.739222	-367.246256	286.921653	152.717989	-363.180516	-65.165779	851.240944	-239.814671	21.017769	84.707100	-442.170555	21.134318	84.166067	-43.799641	
753	3.7650	478.290319	1235.065603	-37.917183	564.227845	1188.564633	-361.303173	489.519296	1289.871029	-203.155501	465.913131	1154.791684	-205.682171	467.030513	998.537985	60.829602	667.987361	907.424955	-51.399341	443.502608	988.734800	-530.699101	660.190360	907.520540	-451.054524	12.896038	1119.884261	-287.145749	156.506467	1100.010698	-421.303986	137.902453	1146.090896	-127.737909	194.094982	1047.942563	-389.896911	187.068359	1097.458601	-140.145088	32.177139	1158.544726	-230.213427	45.642750	1151.206975	-338.611452	136.916673	1037.559496	-74.535356	115.635437	959.169584	-441.976534	264.212798	979.222881	-86.971121	349.766585	967.070483	-99.464059	417.720992	909.465416	-101.346494	360.418951	991.207751	-126.446096	495.414590	831.177722	-130.666649	475.564966	804.369113	-226.441449	434.347334	751.305152	-92.725228	408.214700	665.561175	-99.217611	343.898752	605.989263	-90.043565	427.706001	653.504751	-131.683035	294.685097	517.343274	-82.604913	288.010615	525.916183	-161.009982	211.842674	475.627480	-110.218143	474.596578	492.453397	-130.504405	398.851702	467.736781	-59.108459	205.748774	850.474708	-430.160515	271.460633	799.253496	-414.893244	300.771881	820.743760	-405.093540	304.287171	715.872066	-400.384121	338.369066	620.711894	-380.579513	340.911413	608.928406	-285.108768	138.597342	310.124141	-405.648221	158.650399	305.269317	-332.539154	64.598649	302.559861	-364.246633	192.123787	182.803072	-428.495961	284.043379	535.069860	-407.522459	256.992854	452.913741	-399.658036	192.005387	392.778380	-405.971260	275.880487	442.561684	-366.548097	279.803007	156.078073	-363.219469	-65.094107	851.261266	-239.752130	21.021416	84.708393	-442.172971	21.124862	84.146127	-43.805868	
754	3.7700	477.665984	1235.132712	-37.437979	564.001550	1187.019638	-361.046882	489.570136	1288.940682	-200.662011	465.681243	1153.907813	-205.112182	465.915070	998.508201	61.510510	667.045211	907.591476	-50.514124	442.282463	987.389918	-529.641843	660.115285	907.613435	-451.407492	12.483886	1118.616327	-286.770486	156.268583	1099.092801	-420.570897	137.698513	1144.852498	-126.482466	194.161113	1047.226360	-388.906935	187.466924	1096.771328	-138.968351	31.775881	1157.179856	-229.615582	46.574660	1149.293469	-336.416680	136.762354	1034.928951	-73.521605	117.089651	958.389231	-441.380907	264.258997	975.472559	-85.171608	349.720502	962.229835	-97.133549	416.715161	903.537640	-99.485800	360.946678	986.625496	-123.620344	494.424557	825.393814	-129.025431	475.404256	798.913947	-224.158539	434.735396	744.237672	-90.945018	410.169280	658.179248	-98.053756	346.895623	597.380347	-89.235696	429.617886	646.597194	-130.812687	299.319089	508.665936	-81.927432	292.462097	517.162584	-160.634680	217.657773	464.683365	-109.992410	479.814697	488.534642	-130.252344	404.717714	461.679656	-58.890770	208.803565	851.442893	-429.064990	275.050459	800.813561	-413.461190	304.042001	822.857518	-403.375851	308.659801	717.909408	-398.764736	341.387955	622.553246	-379.848673	343.322876	610.523654	-284.009131	134.441711	316.507128	-405.397014	154.304472	311.434332	-332.213201	60.284298	310.224999	-364.062521	185.636110	188.354288	-428.420583	285.345045	538.011769	-406.806703	256.493207	456.601498	-399.362047	189.883396	397.937088	-405.501867	274.914728	445.579903	-365.961349	272.962407	160.114943	-363.192408	-65.027001	851.269834	-239.671545	21.013873	84.717518	-442.187525	21.095837	84.135398	-43.823880	
